<?xml version="1.0" standalone="no"?>
<!DOCTYPE svg PUBLIC "-//W3C//DTD SVG 20010904//EN"
 "http://www.w3.org/TR/2001/REC-SVG-20010904/DTD/svg10.dtd">
<svg version="1.0" xmlns="http://www.w3.org/2000/svg"
 width="24.000000pt" height="24.000000pt" viewBox="0 0 24.000000 24.000000"
 preserveAspectRatio="xMidYMid meet">

<g transform="translate(0.000000,24.000000) scale(0.100000,-0.100000)"
fill="#000000" stroke="none">
<path d="M24 186 c-3 -7 -4 -42 -2 -77 l3 -64 95 0 95 0 0 65 0 65 -45 3 c-25
2 -49 7 -55 13 -14 14 -85 11 -91 -5z m106 -61 c0 -8 5 -15 12 -15 8 0 6 -6
-5 -17 -16 -16 -18 -16 -34 0 -11 11 -13 17 -5 17 7 0 12 7 12 15 0 8 5 15 10
15 6 0 10 -7 10 -15z"/>
</g>
</svg>
