<?xml version="1.0" standalone="no"?>
<!DOCTYPE svg PUBLIC "-//W3C//DTD SVG 20010904//EN"
 "http://www.w3.org/TR/2001/REC-SVG-20010904/DTD/svg10.dtd">
<svg version="1.0" xmlns="http://www.w3.org/2000/svg"
 width="48.000000pt" height="48.000000pt" viewBox="0 0 48.000000 48.000000"
 preserveAspectRatio="xMidYMid meet">

<g transform="translate(0.000000,48.000000) scale(0.100000,-0.100000)"
fill="#000000" stroke="none">
<path d="M150 395 c0 -12 17 -15 90 -15 73 0 90 3 90 15 0 12 -17 15 -90 15
-73 0 -90 -3 -90 -15z"/>
<path d="M127 364 c-19 -19 3 -24 114 -24 92 0 120 3 117 13 -5 13 -218 23
-231 11z"/>
<path d="M90 301 c-13 -25 -13 -187 0 -212 10 -17 23 -19 150 -19 165 0 160
-4 160 125 0 129 5 125 -160 125 -127 0 -140 -2 -150 -19z m210 -49 c0 -9 -10
-22 -22 -27 -18 -8 -24 -21 -28 -55 -4 -37 -9 -46 -28 -48 -32 -5 -42 27 -14
46 16 10 22 25 22 49 0 26 5 36 23 43 34 14 47 12 47 -8z"/>
</g>
</svg>
